<svg width="256" height="256" viewBox="0 0 256 256" fill="none" xmlns="http://www.w3.org/2000/svg">
<g clip-path="url(#clip0_103_9)">
<circle cx="128" cy="128" r="128" fill="#1D2330"/>
<path d="M86.2698 183.568C84.7338 183.568 83.4218 183.024 82.3338 181.936C81.2458 180.848 80.7018 179.536 80.7018 178C80.7018 176.464 81.2458 175.152 82.3338 174.064C83.4218 172.976 84.7338 172.432 86.2698 172.432C87.8058 172.432 89.1178 172.976 90.2058 174.064C91.2938 175.152 91.8378 176.464 91.8378 178C91.8378 179.536 91.2938 180.848 90.2058 181.936C89.1178 183.024 87.8058 183.568 86.2698 183.568ZM69.6618 183.568C68.1258 183.568 66.8138 183.024 65.7258 181.936C64.6378 180.848 64.0938 179.536 64.0938 178C64.0938 176.464 64.6378 175.152 65.7258 174.064C66.8138 172.976 68.1258 172.432 69.6618 172.432C71.1978 172.432 72.5098 172.976 73.5978 174.064C74.6858 175.152 75.2298 176.464 75.2298 178C75.2298 179.536 74.6858 180.848 73.5978 181.936C72.5098 183.024 71.1978 183.568 69.6618 183.568ZM92.728 169.2L70.552 130.512C67.992 125.968 66.744 121.968 66.808 118.512C66.936 115.056 67.928 112.048 69.784 109.488C71.64 106.864 73.848 104.592 76.408 102.672C78.392 101.2 79.928 99.888 81.016 98.736C82.104 97.584 82.648 95.76 82.648 93.264L115.192 150H100.216L81.304 117.36C80.92 118.064 80.728 119.056 80.728 120.336C80.792 121.552 81.144 122.736 81.784 123.888L107.608 169.2H92.728ZM106.264 150V136.56H122.2V150H106.264ZM57.4 169.2L67.768 151.92C68.408 153.2 69.368 154.16 70.648 154.8C71.928 155.44 73.144 155.76 74.296 155.76H89.368L95.128 169.2H57.4ZM114.49 150V136.56H124.57V150H114.49ZM131.29 145.2V76.176L144.73 73.2V145.2H131.29ZM115.93 150L123.994 136.56H146.65V150H115.93ZM135.61 150V136.56H194.65C194.714 134.832 194.17 133.456 193.018 132.432C191.93 131.344 189.594 130.8 186.01 130.8H135.61V117.36H186.01C190.746 117.36 194.554 118.032 197.434 119.376C200.314 120.72 202.49 122.512 203.962 124.752C205.498 126.992 206.554 129.456 207.13 132.144C207.706 134.832 207.994 137.552 207.994 140.304C208.058 142.992 208.09 145.488 208.09 147.792C208.09 148.56 207.77 149.104 207.13 149.424C206.49 149.744 205.85 149.936 205.21 150C204.57 150 204.25 150 204.25 150H135.61Z" fill="#082F49"/>
<path d="M81.2698 179.568C79.7338 179.568 78.4218 179.024 77.3338 177.936C76.2458 176.848 75.7018 175.536 75.7018 174C75.7018 172.464 76.2458 171.152 77.3338 170.064C78.4218 168.976 79.7338 168.432 81.2698 168.432C82.8058 168.432 84.1178 168.976 85.2058 170.064C86.2938 171.152 86.8378 172.464 86.8378 174C86.8378 175.536 86.2938 176.848 85.2058 177.936C84.1178 179.024 82.8058 179.568 81.2698 179.568ZM64.6618 179.568C63.1258 179.568 61.8138 179.024 60.7258 177.936C59.6378 176.848 59.0938 175.536 59.0938 174C59.0938 172.464 59.6378 171.152 60.7258 170.064C61.8138 168.976 63.1258 168.432 64.6618 168.432C66.1978 168.432 67.5098 168.976 68.5978 170.064C69.6858 171.152 70.2298 172.464 70.2298 174C70.2298 175.536 69.6858 176.848 68.5978 177.936C67.5098 179.024 66.1978 179.568 64.6618 179.568ZM87.728 165.2L65.552 126.512C62.992 121.968 61.744 117.968 61.808 114.512C61.936 111.056 62.928 108.048 64.784 105.488C66.64 102.864 68.848 100.592 71.408 98.672C73.392 97.2 74.928 95.888 76.016 94.736C77.104 93.584 77.648 91.76 77.648 89.264L110.192 146H95.216L76.304 113.36C75.92 114.064 75.728 115.056 75.728 116.336C75.792 117.552 76.144 118.736 76.784 119.888L102.608 165.2H87.728ZM101.264 146V132.56H117.2V146H101.264ZM52.4 165.2L62.768 147.92C63.408 149.2 64.368 150.16 65.648 150.8C66.928 151.44 68.144 151.76 69.296 151.76H84.368L90.128 165.2H52.4ZM109.49 146V132.56H119.57V146H109.49ZM126.29 141.2V72.176L139.73 69.2V141.2H126.29ZM110.93 146L118.994 132.56H141.65V146H110.93ZM130.61 146V132.56H189.65C189.714 130.832 189.17 129.456 188.018 128.432C186.93 127.344 184.594 126.8 181.01 126.8H130.61V113.36H181.01C185.746 113.36 189.554 114.032 192.434 115.376C195.314 116.72 197.49 118.512 198.962 120.752C200.498 122.992 201.554 125.456 202.13 128.144C202.706 130.832 202.994 133.552 202.994 136.304C203.058 138.992 203.09 141.488 203.09 143.792C203.09 144.56 202.77 145.104 202.13 145.424C201.49 145.744 200.85 145.936 200.21 146C199.57 146 199.25 146 199.25 146H130.61Z" fill="white"/>
</g>
<defs>
<clipPath id="clip0_103_9">
<rect width="256" height="256" fill="white"/>
</clipPath>
</defs>
</svg>
