<svg width="256" height="256" viewBox="0 0 256 256" fill="none" xmlns="http://www.w3.org/2000/svg"><g clip-path="url(#clip0_103_9)"><circle cx="128" cy="128" r="128" fill="#1D2330"/><path d="M92.728 169.2L70.552 130.512C67.992 125.968 66.744 121.968 66.808 118.512C66.936 115.056 67.928 112.048 69.784 109.488C71.64 106.864 73.848 104.592 76.408 102.672C78.392 101.2 79.928 99.888 81.016 98.736C82.104 97.584 82.648 95.76 82.648 93.264L115.192 150H100.216L81.304 117.36C80.92 118.064 80.728 119.056 80.728 120.336C80.792 121.552 81.144 122.736 81.784 123.888L107.608 169.2H92.728ZM106.264 150V136.56H122.2V150H106.264ZM57.4 169.2L67.768 151.92C68.408 153.2 69.368 154.16 70.648 154.8C71.928 155.44 73.144 155.76 74.296 155.76H89.368L95.128 169.2H57.4ZM151.52 183.568C149.984 183.568 148.672 183.024 147.584 181.936C146.496 180.848 145.952 179.536 145.952 178C145.952 176.464 146.496 175.152 147.584 174.064C148.672 172.976 149.984 172.432 151.52 172.432C153.056 172.432 154.368 172.976 155.456 174.064C156.544 175.152 157.088 176.464 157.088 178C157.088 179.536 156.544 180.848 155.456 181.936C154.368 183.024 153.056 183.568 151.52 183.568ZM134.912 183.568C133.376 183.568 132.064 183.024 130.976 181.936C129.888 180.848 129.344 179.536 129.344 178C129.344 176.464 129.888 175.152 130.976 174.064C132.064 172.976 133.376 172.432 134.912 172.432C136.448 172.432 137.76 172.976 138.848 174.064C139.936 175.152 140.48 176.464 140.48 178C140.48 179.536 139.936 180.848 138.848 181.936C137.76 183.024 136.448 183.568 134.912 183.568ZM114.49 150V136.56H124.57V150H114.49ZM131.29 145.2V76.176L144.73 73.2V145.2H131.29ZM115.93 150L123.994 136.56H146.65V150H115.93ZM135.61 150V136.56H194.65C194.714 134.832 194.17 133.456 193.018 132.432C191.93 131.344 189.594 130.8 186.01 130.8H135.61V117.36H186.01C190.746 117.36 194.554 118.032 197.434 119.376C200.314 120.72 202.49 122.512 203.962 124.752C205.498 126.992 206.554 129.456 207.13 132.144C207.706 134.832 207.994 137.552 207.994 140.304C208.058 142.992 208.09 145.488 208.09 147.792C208.09 148.56 207.77 149.104 207.13 149.424C206.49 149.744 205.85 149.936 205.21 150C204.57 150 204.25 150 204.25 150H135.61Z" fill="#082F49"/><path d="M87.728 165.2L65.552 126.512C62.992 121.968 61.744 117.968 61.808 114.512C61.936 111.056 62.928 108.048 64.784 105.488C66.64 102.864 68.848 100.592 71.408 98.672C73.392 97.2 74.928 95.888 76.016 94.736C77.104 93.584 77.648 91.76 77.648 89.264L110.192 146H95.216L76.304 113.36C75.92 114.064 75.728 115.056 75.728 116.336C75.792 117.552 76.144 118.736 76.784 119.888L102.608 165.2H87.728ZM101.264 146V132.56H117.2V146H101.264ZM52.4 165.2L62.768 147.92C63.408 149.2 64.368 150.16 65.648 150.8C66.928 151.44 68.144 151.76 69.296 151.76H84.368L90.128 165.2H52.4ZM146.52 179.568C144.984 179.568 143.672 179.024 142.584 177.936C141.496 176.848 140.952 175.536 140.952 174C140.952 172.464 141.496 171.152 142.584 170.064C143.672 168.976 144.984 168.432 146.52 168.432C148.056 168.432 149.368 168.976 150.456 170.064C151.544 171.152 152.088 172.464 152.088 174C152.088 175.536 151.544 176.848 150.456 177.936C149.368 179.024 148.056 179.568 146.52 179.568ZM129.912 179.568C128.376 179.568 127.064 179.024 125.976 177.936C124.888 176.848 124.344 175.536 124.344 174C124.344 172.464 124.888 171.152 125.976 170.064C127.064 168.976 128.376 168.432 129.912 168.432C131.448 168.432 132.76 168.976 133.848 170.064C134.936 171.152 135.48 172.464 135.48 174C135.48 175.536 134.936 176.848 133.848 177.936C132.76 179.024 131.448 179.568 129.912 179.568ZM109.49 146V132.56H119.57V146H109.49ZM126.29 141.2V72.176L139.73 69.2V141.2H126.29ZM110.93 146L118.994 132.56H141.65V146H110.93ZM130.61 146V132.56H189.65C189.714 130.832 189.17 129.456 188.018 128.432C186.93 127.344 184.594 126.8 181.01 126.8H130.61V113.36H181.01C185.746 113.36 189.554 114.032 192.434 115.376C195.314 116.72 197.49 118.512 198.962 120.752C200.498 122.992 201.554 125.456 202.13 128.144C202.706 130.832 202.994 133.552 202.994 136.304C203.058 138.992 203.09 141.488 203.09 143.792C203.09 144.56 202.77 145.104 202.13 145.424C201.49 145.744 200.85 145.936 200.21 146C199.57 146 199.25 146 199.25 146H130.61Z" fill="white"/></g><defs><clipPath id="clip0_103_9"><rect width="256" height="256" fill="white"/></clipPath></defs></svg>
