<?xml version="1.0" encoding="UTF-8" standalone="no"?>
<svg
   width="64"
   height="64"
   viewBox="0 0 64 64"
   fill="none"
   version="1.1"
   id="svg6"
   sodipodi:docname="favicon.svg"
   inkscape:version="1.2.1 (9c6d41e410, 2022-07-14, custom)"
   xmlns:inkscape="http://www.inkscape.org/namespaces/inkscape"
   xmlns:sodipodi="http://sodipodi.sourceforge.net/DTD/sodipodi-0.dtd"
   xmlns="http://www.w3.org/2000/svg"
   xmlns:svg="http://www.w3.org/2000/svg">
  <defs
     id="defs10" />
  <sodipodi:namedview
     id="namedview8"
     pagecolor="#ffffff"
     bordercolor="#666666"
     borderopacity="1.0"
     inkscape:showpageshadow="2"
     inkscape:pageopacity="0.0"
     inkscape:pagecheckerboard="0"
     inkscape:deskcolor="#d1d1d1"
     showgrid="false"
     inkscape:zoom="7.375"
     inkscape:cx="53.966102"
     inkscape:cy="39.525424"
     inkscape:window-width="1920"
     inkscape:window-height="1003"
     inkscape:window-x="0"
     inkscape:window-y="47"
     inkscape:window-maximized="1"
     inkscape:current-layer="svg6" />
  <circle
     cx="32"
     cy="32"
     fill="#1d2330"
     id="circle2"
     style="stroke-width:0.161616"
     r="32" />
  <path
     d="m 13.027298,37.236738 c 0.122605,-1.153014 0.392599,-2.343017 0.809606,-3.56963 0.417008,-1.226615 0.981402,-2.477825 1.692814,-3.75363 0.269805,-0.466201 0.576601,-0.588805 0.920005,-0.368002 0.319,0.220799 0.343407,0.5766 0.0736,1.067207 -1.791011,3.312027 -2.244819,5.802244 -1.361612,7.470461 1.25121,2.428821 3.64323,3.56963 7.176059,3.422429 4.023436,-0.196205 7.531857,-1.508814 10.524885,-3.937633 -0.588805,-0.196206 -1.656013,-0.343407 -3.201625,-0.441603 -0.760603,-0.049 -1.373816,-0.0982 -1.840016,-0.147202 -0.466199,-0.049 -0.760601,-0.0982 -0.883207,-0.147202 -0.6134,-0.245397 -1.030408,-0.650201 -1.25121,-1.214408 -0.368005,-1.030408 -0.208597,-2.048613 0.478404,-3.054425 1.153014,-1.741819 3.17703,-2.99303 6.072049,-3.753631 0.4662,-0.122604 0.871004,-0.0614 1.21441,0.184 0.343408,0.220803 0.453807,0.858611 0.331203,1.913617 -0.0982,1.005812 -0.294402,1.631418 -0.588804,1.876815 -0.294403,0.245398 -0.907804,0.368003 -1.840014,0.368003 -0.956808,0 -1.484218,0.08581 -1.582414,0.257603 3.483823,0.171797 5.446444,1.04261 5.888049,2.612821 0.147199,0.588805 0.0122,1.361611 -0.404804,2.318418 -0.441604,0.981404 -0.846407,1.68061 -1.21441,2.097618 -3.53283,3.557424 -7.495059,5.43424 -11.886497,5.630445 -3.287432,0.147203 -5.789852,-0.637809 -7.507262,-2.355218 -1.39841,-1.423008 -1.938211,-3.581835 -1.619209,-6.476853 z m 12.328099,11.040091 c 0.147203,-0.196208 0.355799,-0.257603 0.625604,-0.184003 0.490609,0.171797 0.969014,0.392599 1.435212,0.662405 0.466201,0.269806 0.895411,0.5766 1.288011,0.920008 0.196205,0.196206 0.233007,0.417008 0.110406,0.662405 l -1.766414,2.796824 c -0.196205,0.269805 -0.417006,0.294401 -0.662406,0.0736 -0.0982,-0.0982 -0.318998,-0.257601 -0.662403,-0.478402 -0.319001,-0.196208 -0.748212,-0.453808 -1.288012,-0.772809 l -1.214409,1.987218 c -0.171797,0.245398 -0.3926,0.269805 -0.662406,0.0736 -0.122605,-0.0982 -0.417007,-0.282197 -0.883208,-0.552005 -0.441602,-0.269805 -1.042612,-0.637809 -1.803214,-1.104009 -0.269805,-0.1472 -0.306606,-0.355798 -0.110406,-0.625602 l 1.766414,-2.649625 c 0.1472,-0.196205 0.355797,-0.257601 0.625605,-0.183999 0.736006,0.245397 1.423007,0.601009 2.060816,1.067208 z m 11.33299,-21.417776 c 0.220803,-1.594617 0.184002,-4.575441 -0.110406,-8.942476 -0.147196,-2.183422 -0.294395,-3.925428 -0.441599,-5.225642 -0.122603,-1.300214 -0.220801,-2.159012 -0.2944,-2.576021 -0.147203,-0.85861 -0.208411,-1.324811 -0.184003,-1.39841 0.0736,-0.515206 0.404804,-1.3126075 0.993609,-2.3920215 0.392598,-0.687 0.772805,-0.625604 1.140808,0.184004 0.318998,0.662405 0.588805,1.202203 0.809607,1.6192105 0.245398,0.392602 0.441604,0.674611 0.588805,0.846409 0.515205,0.588803 0.588805,1.104008 0.220802,1.545612 l -0.920008,1.030408 c -0.02441,0.049 -0.03681,0.184001 -0.03681,0.404804 0.171797,2.453414 0.294402,4.46504 0.368002,6.035247 0.0736,1.545614 0.08599,2.661827 0.03681,3.348831 -0.02441,0.687001 -0.0736,1.36161 -0.147202,2.024016 -0.049,0.662406 -0.122605,1.312605 -0.220802,1.950416 3.336623,-2.796822 5.851249,-4.416038 7.544063,-4.857641 2.011814,-0.5398 3.631026,0.380208 4.85764,2.760025 0.196394,0.368003 0.220803,0.846405 0.0736,1.435211 -0.245209,0.834202 -0.527409,1.619214 -0.846406,2.35522 -0.318812,0.711409 -0.67461,1.349405 -1.06721,1.913615 -0.785011,1.153013 -1.987217,1.913615 -3.606429,2.281617 -4.563239,1.079414 -8.930084,1.74182 -13.100908,1.987217 -0.515205,0 -0.883209,-0.355798 -1.104009,-1.067208 -0.09801,-0.368003 -0.159406,-0.723801 -0.184002,-1.06721 -0.049,-0.368002 -0.03681,-0.736004 0.0368,-1.104008 0.147202,-0.760603 0.564397,-1.153014 1.251212,-1.17761 0.637996,-0.0246 1.165404,-0.049 1.582412,-0.0736 0.441602,-0.0246 0.760602,-0.049 0.956808,-0.0736 z m 8.169667,-2.097617 c -1.864422,0.049 -4.256442,1.251211 -7.176058,3.606428 4.636838,-0.466198 8.194263,-1.091803 10.672088,-1.876815 -0.932211,-1.153014 -2.097617,-1.729613 -3.49603,-1.729613 z"
     fill="#ffffff"
     id="path4"
     style="stroke-width:0.187756" />
</svg>
